/* XPM */
static char *_6ca93be23e34bbd83be4ef8042728fcmjTBIkXfB8sMerBP[] = {
/* columns rows colors chars-per-pixel */
"32 32 236 2 ",
"   c None",
".  c #E41A5B",
"X  c #E21A5C",
"o  c #E31A5C",
"O  c #E51A5C",
"+  c #E61A5C",
"@  c #E61B5D",
"#  c #E71D5C",
"$  c #EA195B",
"%  c #EA1B5B",
"&  c #E81C5B",
"*  c #E9195C",
"=  c #E9195D",
"-  c #EA195C",
";  c #EB195D",
":  c #E81A5C",
">  c #E91A5C",
",  c #E91B5C",
"<  c #E81B5D",
"1  c #EA1A5C",
"2  c #EB1A5C",
"3  c #EA1B5E",
"4  c #EC195C",
"5  c #ED195C",
"6  c #ED195D",
"7  c #EE195C",
"8  c #EF195C",
"9  c #ED1A5C",
"0  c #ED1B5C",
"q  c #EE1A5C",
"w  c #EB1D5C",
"e  c #E91C5F",
"r  c #EA1C5F",
"t  c #EA1D5F",
"y  c #F5195B",
"u  c #F21E5B",
"i  c #F0195C",
"p  c #F1195C",
"a  c #F2195C",
"s  c #F3195C",
"d  c #F21B5D",
"f  c #F5185C",
"g  c #F4195C",
"h  c #F5195C",
"j  c #F5195D",
"k  c #F6195C",
"l  c #F6195D",
"z  c #F41A5C",
"x  c #F51A5C",
"c  c #F61A5C",
"v  c #F61B5E",
"b  c #F31D5C",
"n  c #DC3B58",
"m  c #D93F59",
"M  c #DD3D5A",
"N  c #E2225A",
"B  c #E6215B",
"V  c #E5235B",
"C  c #EF255B",
"Z  c #E22D5B",
"A  c #EE285A",
"S  c #EB2D5A",
"D  c #EA325A",
"F  c #E73959",
"G  c #E81D60",
"H  c #EA1C60",
"J  c #EB1E61",
"K  c #F21B60",
"L  c #F11E60",
"P  c #F61D60",
"I  c #ED2163",
"U  c #EF2566",
"Y  c #EF2568",
"T  c #F32164",
"R  c #F12166",
"E  c #F22466",
"W  c #F22567",
"Q  c #F82164",
"!  c #F92266",
"~  c #F92467",
"^  c #F12669",
"/  c #F2276A",
"(  c #FA266A",
")  c #F4286C",
"_  c #F6296C",
"`  c #F12D6C",
"'  c #FB286C",
"]  c #F82B6F",
"[  c #F92B6F",
"{  c #FB2B6E",
"}  c #FA2B6F",
"|  c #F82C6F",
" . c #EE3161",
".. c #F7376F",
"X. c #FE3073",
"o. c #FD3174",
"O. c #FD3075",
"+. c #FD3175",
"@. c #FE3175",
"#. c #FE3275",
"$. c #FD3377",
"%. c #FE3276",
"&. c #FF3276",
"*. c #FE3377",
"=. c #FF3377",
"-. c #FC3775",
";. c #FE3476",
":. c #FF3477",
">. c #FD3776",
",. c #F83870",
"<. c #F93C73",
"1. c #F83179",
"2. c #FA3278",
"3. c #FC3278",
"4. c #FF3378",
"5. c #FB3479",
"6. c #FF3579",
"7. c #FF387C",
"8. c #FF3A7D",
"9. c #BF4C54",
"0. c #A36550",
"q. c #DB4658",
"w. c #D64E58",
"e. c #DB5257",
"r. c #E34059",
"t. c #CF6555",
"y. c #C66F54",
"u. c #CF6D55",
"i. c #CD6F54",
"p. c #D46155",
"a. c #CC7354",
"s. c #C17854",
"d. c #EF436F",
"f. c #EE4F6F",
"g. c #EE516F",
"h. c #ED526E",
"j. c #E2586C",
"k. c #E3586E",
"l. c #EB4474",
"z. c #F64172",
"x. c #F44573",
"c. c #DE6363",
"v. c #D86561",
"b. c #DE6867",
"n. c #D57B63",
"m. c #DF716D",
"M. c #E3616B",
"N. c #E06468",
"B. c #67A742",
"V. c #6AA643",
"C. c #68AC44",
"Z. c #71A648",
"A. c #6DB047",
"S. c #73B249",
"D. c #71B44B",
"F. c #81974B",
"G. c #BB9151",
"H. c #BE9F58",
"J. c #98B14C",
"K. c #AFAE4E",
"L. c #AFAF4E",
"P. c #B0A64D",
"I. c #B3A94F",
"U. c #A6B64C",
"Y. c #A3BA4A",
"T. c #A2BC4A",
"R. c #A5BC4B",
"E. c #A4BE4B",
"W. c #ABBA4E",
"Q. c #ACB84E",
"!. c #A9BF4D",
"~. c #ADBC4F",
"^. c #B7A151",
"/. c #BCA155",
"(. c #B4AF53",
"). c #B6AB55",
"_. c #B7A956",
"`. c #AEB850",
"'. c #B2B251",
"]. c #C18E53",
"[. c #C48C57",
"{. c #CA8359",
"}. c #C39655",
"|. c #D78669",
" X c #D09C69",
".X c #DF9076",
"XX c #E38175",
"oX c #80C45C",
"OX c #A6C14C",
"+X c #A7C34E",
"@X c #A7C44C",
"#X c #A6C44D",
"$X c #A7C44D",
"%X c #A9C14C",
"&X c #A8C24D",
"*X c #AAC34D",
"=X c #A9C14E",
"-X c #A8C44D",
";X c #A8C54D",
":X c #A8C44E",
">X c #A9C54E",
",X c #AAC54F",
"<X c #AAC64E",
"1X c #AAC64F",
"2X c #A9C550",
"3X c #AAC750",
"4X c #ADC651",
"5X c #ABC852",
"6X c #ACC851",
"7X c #ADC952",
"8X c #AECA52",
"9X c #AECA54",
"0X c #AFCB54",
"qX c #B3C253",
"wX c #B2C453",
"eX c #B1C854",
"rX c #B0CB54",
"tX c #B0CC54",
"yX c #B2CD55",
"uX c #B3CD56",
"iX c #B2CE57",
"pX c #B4CE57",
"aX c #B6D058",
"sX c #B8D15A",
"dX c #B9D25A",
"fX c #BAD35C",
"gX c #BAD45C",
"hX c #BBD45D",
"jX c #C1D261",
"kX c #FF3A80",
"lX c #FF3F83",
"zX c #FF4284",
"xX c #FF4386",
"cX c #FF498A",
"vX c #FF498C",
"bX c #FF5294",
/* pixels */
"                                                                ",
"                                                                ",
"                                  5X                            ",
"                                  uX                            ",
"                                oXA.S.                          ",
"                        5X3XB.D.F.Z.C.  6X                      ",
"                        uXJ.0.N 0 w w.S.yX                      ",
"                        0XG.d f f f $ 0.*XE.                    ",
"                >X    z.x.c.f f f v f q.L.Y.>X                  ",
"                dX~.*.:.:.{ f f y f f f B P.uX                  ",
"                fX(.2.*.:.T y y f v y f 5 y.eX$X                ",
"              >X3X$X` < t 0 f v a.y y y i d.`.>X                ",
"              n.N._.& y f f y u.W.v y d d :.*.b.'.              ",
"            5.*.*.:.< f f f r.eX8Xe.f y f _ *.*.>.              ",
"          >Xl.3.*.*.$ f f F wXhX>XI.u f f t @ | :.              ",
"        >XpX=Xk.*._ 5 y v ,.XX/.$X$Xa.f f f 0 o I T             ",
"        8XpX$X=XZ t i y Q lXzX*.{.$X%XD f f v d $ .             ",
"        |. Xh.f.m < y v ( :.:.:.*.[.$Xp.y y y y y @ L.+X        ",
"          cX*.*.E i f f ~ ~ ~ o.*.*... .f v f f T p.).3X        ",
"          8.*.*.U i f f f y y v ' *.*.f f f f Q zX7.6.          ",
"          } J ) H 0 f f v y y v y y y f f v P *.^ ^ *.          ",
"          M O 0 0 f f f f f f f f y y v y y K < 0 0 <           ",
"          >Xw.& v f f v y y y y f v y f f y y y l l V           ",
"          >XaX=Xt.A f y v f f v f f y f f v f d 0 n Q.          ",
"            3X8X$X$X^.C f f f f v f y $ d d S ].4X+XE.          ",
"              jXm.h.M.<.w f f f y f f i d }.hXaX>XE.E.          ",
"                bXkX*.*.} < y f y f i & j.XXwX+X+XT.            ",
"                6.vX*.*.*.H 0 f v f 0 U zX7.-.H.U.              ",
"                    *.*.E O d f y f t & *.*.*.2.                ",
"                        < . i f y f y < < *.                    ",
"                                                                ",
"                                                                "
};
