/* XPM */
static char *_642621750179[] = {
/* columns rows colors chars-per-pixel */
"32 32 130 2 ",
"   c #020101",
".  c #090603",
"X  c #0C0904",
"o  c #0C0C0C",
"O  c #120E05",
"+  c #140F0A",
"@  c #161104",
"#  c #12110E",
"$  c #1C180B",
"%  c #1E150C",
"&  c #0B1113",
"*  c #111111",
"=  c #191512",
"-  c #1B1C1C",
";  c #1F1C14",
":  c #25190F",
">  c #291C10",
",  c #201E18",
"<  c #2F2508",
"1  c #3F2C19",
"2  c #0F1D21",
"3  c #2B2925",
"4  c #2A2B2D",
"5  c #2F2F30",
"6  c #313130",
"7  c #303639",
"8  c #37393B",
"9  c #393B3D",
"0  c #4A3A0E",
"q  c #503E0D",
"w  c #432F1C",
"e  c #45301B",
"r  c #4D3622",
"t  c #493E20",
"y  c #43392F",
"u  c #523821",
"i  c #5B3E24",
"p  c #443A32",
"a  c #685216",
"s  c #755B13",
"d  c #4F4424",
"f  c #62542C",
"g  c #75502E",
"h  c #7E6B38",
"j  c #736333",
"k  c #1C3941",
"l  c #3C3E41",
"z  c #21444E",
"x  c #254B55",
"c  c #2A5561",
"v  c #2D5C69",
"b  c #326675",
"n  c #336877",
"m  c #346B7A",
"M  c #424344",
"N  c #494A4C",
"B  c #4B4E52",
"V  c #4E5257",
"C  c #515356",
"Z  c #545659",
"A  c #55595D",
"S  c #715640",
"D  c #78685A",
"F  c #575C60",
"G  c #5A5E61",
"H  c #5E6164",
"J  c #676769",
"K  c #66686D",
"L  c #686B6E",
"P  c #676C71",
"I  c #696D72",
"U  c #72767B",
"Y  c #76797E",
"T  c #825833",
"R  c #8C5F37",
"E  c #8E6138",
"W  c #9B693D",
"Q  c #A06D3F",
"!  c #9B7658",
"~  c #A26E40",
"^  c #A57041",
"/  c #AC7544",
"(  c #B27946",
")  c #A6821B",
"_  c #E9B625",
"`  c #E3B124",
"'  c #9A8344",
"]  c #A08947",
"[  c #A48C49",
"{  c #AB924C",
"}  c #B0964F",
"|  c #988372",
" . c #C7A958",
".. c #C8AA59",
"X. c #DBBB62",
"o. c #E5C466",
"O. c #F1CE6C",
"+. c #F6D26D",
"@. c #FCD770",
"#. c #757A81",
"$. c #7F8287",
"%. c #7F858D",
"&. c #84868A",
"*. c #86898E",
"=. c #838A92",
"-. c #8B8F94",
";. c #8E9195",
":. c #8A9099",
">. c #93979D",
",. c #9A9DA3",
"<. c #A1A3A6",
"1. c #A6A8AB",
"2. c #A2A6AC",
"3. c #ADAFB2",
"4. c #A3AAB5",
"5. c #AAB2BD",
"6. c #B2B7BE",
"7. c #B5B8BE",
"8. c #DEC0A7",
"9. c #EBCCB0",
"0. c #F0D0B4",
"q. c #B5B9C0",
"w. c #BEC2CA",
"e. c #C9CCCF",
"r. c #C6CAD2",
"t. c #CACED3",
"y. c #CCD1D9",
"u. c #D6D9DC",
"i. c #DFE2E7",
"p. c None",
/* pixels */
"p.p.p.p.p.p.p.p.p.p.p.p.p.p.p.p.p.p.p.p.p.p.p.p.p.p.p.p.p.p.p.p.",
"p.p.p.p.p.p.p.p.p.p.. X e w . . p.p.p.p.p.p.p.p.p.p.p.p.p.p.p.p.",
"p.p.p.p.p.p.p.p.p.p.: / i > u   . p.p.p.p.p.p.p.p.p.p.p.p.p.p.p.",
"p.p.p.p.p.p.p.p.p.. E ( ( g   =.=.o p.p.p.p.p.p.p.p.p.p.p.p.p.p.",
"p.p.p.p.p.p.p.p.p.  / ( ~ w         o p.p.p.p.p.p.p.p.p.p.p.p.p.",
"p.p.p.p.p.p.p.p.p.  ( ^ + H q.y.y.q.G o p.p.p.p.p.p.p.p.p.p.p.p.",
"p.p.p.p.p.p.p.p.p.  ( r Z y.y.y.y.y.y.Z o p.p.p.p.p.p.p.p.p.p.p.",
"p.p.p.p.p.p.p.p.p.  ( = =.y.y.y.y.y.y.&.o p.p.p.p.p.p.p.p.p.p.p.",
"p.p.p.p.p.p.p.p.p.. (   & & 7 A A 7 & &   p.p.p.p.p.p.p.p.p.p.p.",
"p.p.p.p.p.p.p.p.. 1 ^   z c x k k x c z   p.p.p.p.p.p.o *   p.p.",
"p.p.p.p.p.p.  . % ^ E o   n m m n m m   o p.p.p.o & l M   o p.p.",
"p.p.p.p.p.p.. + W ^ i 9 U 2 v m m v 2 U 9 p.p.o 6 i.3.* l o p.p.",
"p.p.p.p.p.p.p.. . . . V y.F   b n   G y.C p.p.- u.3.o ,.9 p.p.p.",
"p.p.p.p.p.p.p.p.p.p.p.. &.y.P & & I y.&..   * e.e.& ,.r.o p.p.p.",
"p.p.p.p.p.p.p.p.p.p.p.p.o K y.y.y.y.I o p.o 7.t.i.7.w.4 o p.p.p.",
"p.p.p.p.p.p.O               N 7.q.N       <.3.o 6.6.- o p.p.p.p.",
"p.p.p.p.p.. [ +.@.[ 0 @ @ ` O   .   O $ &.3.# ,.2.* . p.p.p.p.p.",
"p.p.p.p.p.d @.@.@.o.  q q @ q q @ 0 X J 3.# ,.;.o } d p.p.p.p.p.",
"p.p.p.p.p.h @.@.@.@.j 0 q @ q q @ O N 3.# ,.Y # ..@.h p.p.p.p.p.",
"p.p.p.p.p.f @.@.@.@.' . . ) O O a 6 1.# ,.A , X.@.@.f p.p.p.p.p.",
"p.p.p.p.p.X t  .O.{ X :.#., .   - ,.& >.M   ' +...e X p.p.p.p.p.",
"p.p.p.p.p.  <     . C 5.&.o F & ;.# -.4 9 B .     .   p.p.p.p.p.",
"p.p.p.p.p.  X q q . F %.o S . Z # &.- B 5.A s @ @ s   p.p.p.p.p.",
"p.p.p.p.p.p.  q q O 3 %.o ! ! . B & K 5.5.Z X 0 q X   p.p.p.p.p.",
"p.p.p.p.p.p.X @ @ _ O 4 X X ! ! . F 5.5.5.Z . q q X   p.p.p.p.p.",
"p.p.p.p.p.p.X @ 0 O p p > T X ! S o 4.5.%.. s @ @ s   p.p.p.p.p.",
"p.p.p.p.p.p.p.X O p 9.9.p > X o o %.5.=.o 9 . q q X   p.p.p.p.p.",
"p.p.p.p.p.p.p.p.o p 9.9.9.p l %.%.5.5.- :.K           p.p.p.p.p.",
"p.p.p.p.p.p.p.p.. > y 9.0.8.. 5.5.5.5.  t.K D 0.0.D   p.p.p.p.p.",
"p.p.p.p.p.p.p.p.w ( > p 8.| - 5.5.5.5.  y.J D 0.0.D   p.p.p.p.p.",
"p.p.p.p.p.p.p.p.. w   o .                             p.p.p.p.p.",
"p.p.p.p.p.p.p.p.p.p.p.p.p.p.p.p.p.p.p.p.p.p.p.p.p.p.p.p.p.p.p.p."
};
