/* XPM */
static char *_1d0a642b8f5443d8ca7fdb151b3afcaKhGNOzKFws8up5B7[] = {
/* columns rows colors chars-per-pixel */
"32 32 230 2 ",
"   c None",
".  c black",
"X  c #010101",
"o  c #030101",
"O  c #000102",
"+  c #010202",
"@  c #000203",
"#  c #020202",
"$  c #020203",
"%  c gray1",
"&  c #040101",
"*  c #070202",
"=  c #040405",
"-  c #040505",
";  c gray2",
":  c #050606",
">  c #060606",
",  c #060707",
"<  c #070707",
"1  c #090303",
"2  c #0A0203",
"3  c #0F0505",
"4  c #000709",
"5  c #070708",
"6  c #070808",
"7  c #00090D",
"8  c #00090E",
"9  c #000A0E",
"0  c #000A0F",
"q  c #000B0F",
"w  c #000C0F",
"e  c gray3",
"r  c #080809",
"t  c #090909",
"y  c #090A0A",
"u  c gray4",
"i  c #0A0B0B",
"p  c #0B0B0B",
"a  c #0B0B0C",
"s  c #0B0B0D",
"d  c #0B0C0D",
"f  c #0C0C0C",
"g  c #0C0C0D",
"h  c #0D0D0E",
"j  c #0D0E0E",
"k  c #0E0F0F",
"l  c #150606",
"z  c #000C10",
"x  c #000D11",
"c  c #0F0F10",
"v  c #0F0F11",
"b  c #0F1114",
"n  c #0F1215",
"m  c #0F1216",
"M  c #0F1419",
"N  c #101010",
"B  c #101011",
"V  c #101111",
"C  c #101012",
"Z  c #111112",
"A  c #121315",
"S  c #121416",
"D  c #141515",
"F  c #141516",
"G  c #161616",
"H  c #10151B",
"J  c #161718",
"K  c #171718",
"L  c #14191E",
"P  c #171A1E",
"I  c #161A1F",
"U  c #191A1A",
"Y  c #1A1B1B",
"T  c #1D1D1E",
"R  c #21090A",
"E  c #280B0C",
"W  c #151B22",
"Q  c #191D21",
"!  c #191D22",
"~  c #1E2021",
"^  c #1F2122",
"/  c #182028",
"(  c #1A212A",
")  c #1D252F",
"_  c #1D2630",
"`  c #1F2933",
"'  c #212325",
"]  c #222426",
"[  c #232526",
"{  c #242627",
"}  c #272829",
"|  c #282A2B",
" . c #292A2C",
".. c #292C2D",
"X. c #2A2D2F",
"o. c #212B36",
"O. c #303233",
"+. c #343638",
"@. c #373839",
"#. c #38393A",
"$. c #3C3E3E",
"%. c #631C1F",
"&. c #7D2328",
"*. c #013342",
"=. c #003B53",
"-. c #273340",
";. c #3A3D40",
":. c #024357",
">. c #024358",
",. c #004D6C",
"<. c #004E6D",
"1. c #035F7B",
"2. c #035F7C",
"3. c #03607D",
"4. c #404345",
"5. c #424547",
"6. c #434547",
"7. c #434648",
"8. c #46494C",
"9. c #474B4D",
"0. c #4D4F50",
"q. c #4F565A",
"w. c #535555",
"e. c #505457",
"r. c #525456",
"t. c #515558",
"y. c #55595C",
"u. c #535C5F",
"i. c #595C5E",
"p. c #5C5E5F",
"a. c #5C6165",
"s. c #5C6264",
"d. c #5F6264",
"f. c #626465",
"g. c #626566",
"h. c #646667",
"j. c #62676B",
"k. c #63686B",
"l. c #64696D",
"z. c #686A6B",
"x. c #686B6C",
"c. c #696B6C",
"v. c #6A6C6D",
"b. c #6F7172",
"n. c #6E7478",
"m. c #6F7479",
"M. c #727576",
"N. c #70757A",
"B. c #757779",
"V. c #73797D",
"C. c #787A7C",
"Z. c #7A7D7E",
"A. c #7A7D7F",
"S. c #B9343B",
"D. c #ED434B",
"F. c #01668C",
"G. c #006D99",
"H. c #006E9A",
"J. c #006E9B",
"K. c #006F9D",
"L. c #037193",
"P. c #02769D",
"I. c #017CA9",
"U. c #797E83",
"Y. c #7C7F80",
"T. c #0081B4",
"R. c #0083B8",
"E. c #7F8283",
"W. c #808384",
"Q. c #82888D",
"!. c #86898C",
"~. c #848B90",
"^. c #858B90",
"/. c #8B8E90",
"(. c #8D9092",
"). c #8A9196",
"_. c #8D9499",
"`. c #909394",
"'. c #949798",
"]. c #90979D",
"[. c #95999B",
"{. c #979A9B",
"}. c #989B9D",
"|. c #999C9E",
" X c #9A9C9E",
".X c #979EA4",
"XX c #9DA1A3",
"oX c #98A0A5",
"OX c #A0A4A6",
"+X c #A6AAAB",
"@X c #A6A9AC",
"#X c #A7ABAC",
"$X c #A8ACAE",
"%X c #A2AAB0",
"&X c #A5ADB3",
"*X c #A7AFB5",
"=X c #AAAEB0",
"-X c #ADB1B3",
";X c #B0B4B6",
":X c #B1B4B7",
">X c #B1B5B7",
",X c #B5B9BA",
"<X c #B2BBC2",
"1X c #B3BCC3",
"2X c #B5BEC4",
"3X c #B7C0C7",
"4X c #BCC0C2",
"5X c #B8C1C8",
"6X c #C0C4C7",
"7X c #C4C8CA",
"8X c #C9CCCE",
"9X c #CBCFD1",
"0X c #CED2D5",
"qX c #D0D4D6",
"wX c #D2D5D7",
"eX c #D2D6D8",
"rX c #D4D8DA",
"tX c #D5D9DB",
"yX c #D5D9DC",
"uX c #D6DADC",
"iX c #D6DADD",
"pX c #D8DDDF",
"aX c #D9DDE0",
"sX c #D9DEE0",
"dX c #D9DEE1",
"fX c #DDE2E4",
"gX c #E1E6E8",
"hX c #E4E9EB",
"jX c #E6EBEE",
"kX c #E7ECEF",
/* pixels */
"                                & & 1 & 1                       ",
"                                &.D.D.R                         ",
"                                %.S.S.E                         ",
"                                1 l l l l                       ",
"                              . .                               ",
"                              9 9                               ",
"                            w F.G.9                             ",
"                          x 3.T.T.K.9                           ",
"                        w 3.P.R.R.R.G.z                         ",
"                      x 3.L.I.T.R.R.R.K.9                       ",
"                    @ *.:.:.,.,.,.,.,.,.=..                     ",
"                    w 5 u.q.s.s.s.a.s.a.i 4                     ",
"                      C c.Y }.b.b.8XuXuXC                       ",
"f f     f a   f f     C eXpXf.L W s.kXkXf     f f   g p     f f ",
"> n.C i l...  > V.C   v.eXsX' o.o.' kXkXf   C V.>   ..l.i b n.> ",
"> .Xc a _.y.i ] ~.C   pXeXsX~ o.o.~ kXkXf   C ~.] i y._.p c .X> ",
"@ ).).).).).).).k.C   #.rXpX~ H H ~ kXkXf   C k.).).).).).).).> ",
"C i U @.#.@.@.@.| T   N wXpX$XU.Z.#XkXkXf   T | #.#.#.@.#.U i c ",
"    f.eXuXuXuXuX XD   N wX@X-XaXaX-X:XkXf   K {.eXuXuXuXuXg.    ",
"    g.eXE.| !.kX@XN ..C {.D { p.p.{ D @Xf | C {.9Xi.O.:XjXx.    ",
"    g.,XS o.A 0X@X6.<Xd l.8.U.$.$.U.9.M.i <X6.{.Z.P o.Q kX/.    ",
"    f.`.Q -.Q @X@X6.3Xe.4.~.%X7.7.%XQ.6.e.3X6.{.0.) o.5 kXkX    ",
"    f.`.Q -.Q @X@X6.5X5X5X5X5X3X5X5X5X5X5X5X6.{.0.( -.i kXXX    ",
"    f.'.f L d =X@X6.5X5X3X2Xa.^ ' a.1X~.K l.6.{.w.C L > kXx.    ",
"    f.qX#X@X=XjX@X6.j.+.oX[ m M M n ] 2X*X<X6.{.7X@X@X2XkXc.    ",
"    f.qXfXkXkXkX@X7.&X_.n.n -.W W -.n N.3X3X6.{.eXgXkXkXkXv.    ",
"    g.h.N :XkXkX@X7.5X5X;.( -.W W -.( $.3X5X6.{.w.c 6XkXkXx.    ",
"    f.eXaXC./.kX@X7.5X5XX._ -.W W -._ X.5X5X6.{.rXuXB.}.kXx.    ",
"    g.eXfXW.{.jX@X6.3X5XX._ -.W W -._ X.5X5X6.}.uXaXZ.OXkXx.    ",
"    g.eXhXkXkXkX@X6.3X3XX._ -.W W -._ X.5X5X6.}.uXkXkXkXkXx.    ",
"    g.eXhXkXkXkX@X6.5X5XX._ -.! ! -._ X.5X5X6.}.eXkXkXkXkXv.    ",
"    . i i > > i i . > 5 @ . @ @ . . @ . > < . 5 i < > > i &     "
};
