/* XPM */
static char *_b7f36bb90664c748d5a2496f7211c78gjGnu3w9zQhR1qp6[] = {
/* columns rows colors chars-per-pixel */
"32 32 129 2 ",
"   c None",
".  c #030303",
"X  c #080707",
"o  c #070906",
"O  c #0A0A07",
"+  c #070A08",
"@  c #0A0C0A",
"#  c #0E110B",
"$  c #11130D",
"%  c #0E1511",
"&  c #141513",
"*  c #151B13",
"=  c #181D14",
"-  c #1B1D19",
";  c #1D2519",
":  c #1C281E",
">  c #22251D",
",  c #232B1D",
"<  c #1D2D25",
"1  c #242320",
"2  c #262E26",
"3  c #2B2A26",
"4  c #263121",
"5  c #293524",
"6  c #263429",
"7  c #29382A",
"8  c #333C27",
"9  c #33322D",
"0  c #323D29",
"q  c #253A30",
"w  c #383731",
"e  c #3B3C35",
"r  c #34412B",
"t  c #3A462E",
"y  c #3D482F",
"u  c #2D4234",
"i  c #324334",
"p  c #3B4B34",
"a  c #334B3D",
"s  c #3E5037",
"d  c #3E523B",
"f  c #4F4A2B",
"g  c #414F34",
"h  c #455437",
"j  c #4B5A3B",
"k  c #7C6E3E",
"l  c #3F5A45",
"z  c #395B4C",
"x  c #3C5F50",
"c  c #494740",
"v  c #4D4B43",
"b  c #415C46",
"n  c #415D48",
"m  c #5A584F",
"M  c #5A5950",
"N  c #43614A",
"B  c #48674E",
"V  c #546643",
"C  c #566945",
"Z  c #586A45",
"A  c #5D724C",
"S  c #4C6951",
"D  c #476C58",
"F  c #4F7257",
"G  c #52755A",
"H  c #577D5F",
"J  c #61754C",
"K  c #646258",
"L  c #637D55",
"P  c #477260",
"I  c #4F7F6B",
"U  c #567D60",
"Y  c #587E60",
"T  c #887743",
"R  c #897944",
"E  c #67845C",
"W  c #728758",
"Q  c #748B5B",
"!  c #7A925F",
"~  c #50816D",
"^  c #5B927B",
"/  c #628C6B",
"(  c #64906F",
")  c #759668",
"_  c #74986C",
"`  c #7A9C6C",
"'  c #679471",
"]  c #689773",
"[  c #6B9A76",
"{  c #729B71",
"}  c #74A67F",
"|  c #A38F50",
" . c #819964",
".. c #98B676",
"X. c #A0BF7D",
"o. c #74A780",
"O. c #76A982",
"+. c #78AD84",
"@. c #7AB087",
"#. c #7BB188",
"$. c #70B498",
"%. c #75BD9F",
"&. c #7AC3A4",
"*. c #9A9787",
"=. c #9E9B8B",
"-. c #A5A291",
";. c #98C287",
":. c #9ECA8C",
">. c #88C496",
",. c #8AC798",
"<. c #8ECC9C",
"1. c #90CE9E",
"2. c #AACB84",
"3. c #AED087",
"4. c #AED188",
"5. c #ABDA98",
"6. c #AFE19C",
"7. c #B3E59F",
"8. c #87CDA4",
"9. c #8FD2A4",
"0. c #95D6A4",
"q. c #A1DCA2",
"w. c #C2E897",
"e. c #C3E998",
"r. c #CBF39E",
"t. c #CAC6B2",
"y. c #DFDAC4",
"u. c #E0DBC5",
"i. c #FAF5DC",
/* pixels */
"      .                                                 .       ",
"      . . O         . X                 X .         O . .       ",
"        O c O       X 3 @             @ 3 X       O c O         ",
"          1 t.9 O     w =.O         X =.w     X 9 t.1           ",
"    .     & M i.-.$ . . $ i b F G n 0 % . . # -.i.M *     .     ",
"    O o     & *.u.e 6 ] 0.0.0.0.0.0.0.0.] 6 e u.*.&     o @     ",
"    & j @     & - / 0.0.} ] ,.i i ,.' o.0.0./ - &     @ j $     ",
"      J  .@   O O.0.1.<.* r o A A X r ; 9.,.0.o.O   @  .A       ",
"      0 r.Q . Y 0.' X o 5 r.w.r.r.e.r., + O [ 0.U . W r.0       ",
"      # r.r.J 7 1.b E 6.p j r.r.r.r.h p 7.L b <.7 J r.r.#       ",
"      # 4.r.r.V . 2 :.7.6.p j r.r.j d 7.7.:.5 . V r.r.3.#       ",
"        y r.r.r.Z ; ) 7.7.6.r ! Q 0 6.7.6.) ; Z r.r.r.y         ",
"        @ 0 X.r.r.X.h * ) 7.:.* = :.7.) = g X.r.r.X.8 @         ",
"            . * C ..r.2., ` 7.t p 7.` , 2.r...C * .             ",
"      . . O . I D + $ j A 4 7.A A 7.2 J j $ O H / X O . .       ",
"        # v K x &.a R | f O 7.L L 7.O f | R d 0.S K v $         ",
"            @ < &.@.* k R @ 7.;.;.7.O T k * #.0.6 @             ",
"              # $.9.@.G F @ 7.7.7.7.O F G #.0.,.O               ",
"              % z &.0.0.0.[ 7.7.7.7.# 0.0.0.0.N @               ",
"                # z &.0.0.{ 7.7.7.7.# 0.0.0.,.#                 ",
"                  % ~ 8.0.@ 7.7.7.7.@ 0.0.}                     ",
"                    < &.0.@ 7.7.7.7.@ 0.0.:                     ",
"                    # &.0.@ 7.7.7.7.+ 0.0.o                     ",
"                    + &.0.@ 7.7.7.7.# 0.0.o                     ",
"                    + &.0.@ 7.7.7.7.+ 0.0.X                     ",
"                    + &.6 + 7.7.7.7.+ 7 0.o                     ",
"                    @ %.' . 5.7.7.5.. ( 0..                     ",
"                    * ^ 0.B s 7.7.s B 0.O.#                     ",
"                      q 0.0.( 0.0.' 0.0.u                       ",
"                      % D 0.0.0.0.0.0.H +                       ",
"                        # u +.0.0.@.i O                         ",
"                            # o . #                             "
};
