/* XPM */
static char *_749cd882eca41a2e83770bf49da99baCNLWdVAAvMvFhW2a[] = {
/* columns rows colors chars-per-pixel */
"32 32 133 2 ",
"   c None",
".  c #38353B",
"X  c #3F3E41",
"o  c #424246",
"O  c #414148",
"+  c #434148",
"@  c #434248",
"#  c #44414A",
"$  c #44434A",
"%  c #46454B",
"&  c #46434C",
"*  c #4A494F",
"=  c #494850",
"-  c #4B4A52",
";  c #4C4A51",
":  c #4E4E55",
">  c #4F4D57",
",  c #4F4E56",
"<  c #4F4E57",
"1  c #4F4E58",
"2  c #4F4F59",
"3  c #504E57",
"4  c #504E58",
"5  c #504F58",
"6  c #504F59",
"7  c #515055",
"8  c #525157",
"9  c #515059",
"0  c #51505A",
"q  c #51515A",
"w  c #56545A",
"e  c #52535E",
"r  c #54535D",
"t  c #55555E",
"y  c #55545F",
"u  c #56565E",
"i  c #59585F",
"p  c #59595F",
"a  c #565763",
"s  c #565862",
"d  c #575966",
"f  c #5A5960",
"g  c #585963",
"h  c #5C5A63",
"j  c #5A5965",
"k  c #595A64",
"l  c #5B5B64",
"z  c #5B5C66",
"x  c #5D5C64",
"c  c #5D5C65",
"v  c #5E5D65",
"b  c #5F5D65",
"n  c #5F5E65",
"m  c #5C5D68",
"M  c #5C5D69",
"N  c #5C5D6A",
"B  c #5C5E6A",
"V  c #5D5E6B",
"C  c #5F5F6A",
"Z  c #5F5F6C",
"A  c #5F606C",
"S  c #61616A",
"D  c #61626A",
"F  c #63636A",
"G  c #61616D",
"H  c #62626F",
"J  c #62636F",
"K  c #63636F",
"L  c #64636C",
"P  c #62646F",
"I  c #636471",
"U  c #646470",
"Y  c #646471",
"T  c #656672",
"R  c #666674",
"E  c #676775",
"W  c #656676",
"Q  c #686874",
"!  c #6D6D76",
"~  c #6E6D76",
"^  c #6E6E76",
"/  c #696A79",
"(  c #696A7A",
")  c #6F6F78",
"_  c #6B6C7C",
"`  c #707078",
"'  c #717179",
"]  c #70707A",
"[  c #72727B",
"{  c #71737D",
"}  c #6D6E80",
"|  c #717380",
" . c #737580",
".. c #737483",
"X. c #777781",
"o. c #737484",
"O. c #767886",
"+. c #757888",
"@. c #787988",
"#. c #7B7C8C",
"$. c #7C808D",
"%. c #7E8394",
"&. c #7E8495",
"*. c #808495",
"=. c #858895",
"-. c #868894",
";. c #878994",
":. c #84899B",
">. c #898EA3",
",. c #8A8EA2",
"<. c #8A8FA3",
"1. c #8A90A4",
"2. c #8C90A4",
"3. c #8F92A6",
"4. c #8F93A6",
"5. c #9094A7",
"6. c #9194A8",
"7. c #9FA1B0",
"8. c #A6A9B7",
"9. c #A7AAB8",
"0. c #AAACBC",
"q. c #ABAEBC",
"w. c #A7ACC4",
"e. c #AFB5CE",
"r. c #AFB5CF",
"t. c #B0B7CF",
"y. c #B3B9D3",
"u. c #B4BAD4",
"i. c #B7BDD8",
"p. c #B7BDD9",
"a. c #B8BED9",
"s. c #B8BEDA",
"d. c #B9C0DA",
/* pixels */
"                                                                ",
"  f X.X.X.) X S S S S S S S S S w X.X.X.X.X.X.X.X.7 n S S S ;   ",
"  K a.a.a.w.& <.<.<.<.<.<.<.<.<.R a.a.a.a.a.a.a.a.y :.<.<.<.2   ",
"  K a.a.a.w.& <.<.<.<.1.<.<.<.<.R a.a.a.a.a.a.a.a.y :.1.<.<.2   ",
"  9 #.#.#.| . A A A C A A A A A > #.#.#.#.@.#.#.#.+ C A A A +   ",
"  n 7.7.7.7.7.7.7.7.l $.$.$.$.#.$.$.$.$.#.n 7.7.7.7.7.7.7.7.n   ",
"  K a.a.a.a.a.a.a.a.T <.>.1.<.<.1.<.<.<.1.T i.a.p.p.a.a.a.a.K   ",
"  K a.a.a.a.a.a.a.p.T <.<.<.<.<.<.<.<.<.1.T a.a.a.a.a.a.a.a.K   ",
"  K p.a.a.a.a.a.a.a.T 1.<.<.<.<.<.<.<.<.<.T a.a.a.a.p.p.a.a.K   ",
"  K p.p.p.p.p.p.p.p.T <.<.<.<.<.>.<.<.<.<.T p.a.p.p.p.p.p.p.K   ",
"  h ] ] ] ^ l K K K 9 l l l l l y ^ ^ ^ ^ ^ ] ] ] n C K K K 6   ",
"  I d.d.d.e.> 2.<.2.2.1.2.2.2.1.Q a.d.d.d.a.d.d.d...%.1.<.2.6   ",
"  K a.a.a.e.> <.<.<.<.<.<.<.<.<.R a.a.a.a.a.a.a.p.o.%.<.<.<.2   ",
"  K a.a.a.e.> <.<.<.<.<.<.<.<.<.R a.a.a.a.a.a.a.p.| %.<.<.<.2   ",
"  K a.a.a.e.> <.<.<.<.<.<.<.<.<.R a.a.a.d.a.a.p.a.o.%.<.<.<.2   ",
"  9 #.#.#.O.+ A C Z A M A A A A l 6.6.6.2.#.#.#.#.y l A A A +   ",
"  L q.q.q.q.q.q.q.q.0.q -.-.-.;...{ { { S ;.q.q.q.q.q.q.q.q.L   ",
"  K a.a.a.a.a.a.a.a.u.- >.<.<.<.<.<.<.<.+.5.a.a.a.a.a.a.a.a.L   ",
"  K a.a.a.a.a.a.a.a.u.- >.<.<.<.<.<.<.<.+.5.a.a.a.a.a.a.a.a.I   ",
"  K a.a.a.a.a.a.a.a.u.- <.<.<.,.<.<.<.<.+.5.a.a.a.a.a.a.a.a.I   ",
"  K p.i.a.i.i.p.i.a.y.= <.<.<.,.<.<.,.,.O.5.a.a.p.u.i.p.i.p.K   ",
"  n ] ] ] ] l Z C Z S y l n l l i ^ ] ] ` ] ] { { n C Z C Z 9   ",
"  I a.a.a.r.3 1.1.1.1.1.1.1.1.1.R a.a.s.a.a.a.a.a.o.&.1.1.1.6   ",
"  T a.a.a.e.> <.<.<.<.<.<.<.<.<.T a.a.a.a.a.a.a.a.o.%.<.<.<.2   ",
"  K p.a.a.e.2 <.>.>.1.<.<.<.<.<.R a.a.a.a.a.a.p.a...%.>.>.1.6   ",
"  K p.p.a.e.> <.>.>.>.1.<.<.<.<.R a.a.a.a.a.a.p.a...%.>.>.>.6   ",
"  > { } _ ( # d d d d f a a a a = _ _ _ ( R } } } 6 e l d l o   ",
"  S 0.0.q.0.0.0.0.q.9.9 =.=.=.=.=.=.=.=.{ =.q.q.0.0.0.0.0.q.S   ",
"  I a.a.a.a.a.a.a.a.u.= <.<.<.<.>.<.<.<.+.5.p.a.a.a.a.a.p.a.I   ",
"  I a.a.a.a.a.a.a.a.u.; <.<.<.<.1.<.<.<.O.5.a.a.a.a.a.a.p.p.K   ",
"  2 T I U T U U T U P % 6 6 6 6 6 6 6 6 = y I T U U T I I T 2   ",
"                                                                "
};
